HIERARCHY
ROOT joint_0
{
	OFFSET 0.000000 0.000000 0.000000
	CHANNELS 6 Xposition Yposition Zposition Zrotation Yrotation Xrotation 
	JOINT joint_1
	{
		OFFSET 13.542969 -4.074463 123.986084
		CHANNELS 3 Zrotation Yrotation Xrotation
		JOINT joint_2
		{
			OFFSET -0.108154 -3.018066 113.860962
			CHANNELS 3 Zrotation Yrotation Xrotation
			JOINT joint_3
			{
				OFFSET -1.139648 -3.876465 113.702026
				CHANNELS 3 Zrotation Yrotation Xrotation
				JOINT joint_4
				{
					OFFSET 13.593506 -8.582153 160.876953
					CHANNELS 3 Zrotation Yrotation Xrotation
					JOINT joint_5
					{
						OFFSET 26.480957 -11.565674 94.427979
						CHANNELS 3 Zrotation Yrotation Xrotation
						End Site
						{
							OFFSET 0.000000 0.000000 0.000000
						}
					}
				}
				JOINT joint_6
				{
					OFFSET 3.003662 -39.658691 88.713989
					CHANNELS 3 Zrotation Yrotation Xrotation
					JOINT joint_7
					{
						OFFSET -25.253906 -162.506348 -28.477051
						CHANNELS 3 Zrotation Yrotation Xrotation
						JOINT joint_8
						{
							OFFSET 23.083252 -8.502686 -295.281982
							CHANNELS 3 Zrotation Yrotation Xrotation
							JOINT joint_9
							{
								OFFSET 20.205566 -32.167908 -263.458008
								CHANNELS 3 Zrotation Yrotation Xrotation
								End Site
								{
									OFFSET 0.000000 0.000000 0.000000
								}
							}
						}
					}
				}
				JOINT joint_10
				{
					OFFSET 12.313232 30.012939 91.642944
					CHANNELS 3 Zrotation Yrotation Xrotation
					JOINT joint_11
					{
						OFFSET 31.960205 162.667969 -19.398926
						CHANNELS 3 Zrotation Yrotation Xrotation
						JOINT joint_12
						{
							OFFSET 51.325195 40.249023 -289.038086
							CHANNELS 3 Zrotation Yrotation Xrotation
							JOINT joint_13
							{
								OFFSET 70.170898 60.433594 -249.556030
								CHANNELS 3 Zrotation Yrotation Xrotation
								End Site
								{
									OFFSET 0.000000 0.000000 0.000000
								}
							}
						}
					}
				}
			}
		}
	}
	JOINT joint_14
	{
		OFFSET -15.093262 -91.803833 -113.326904
		CHANNELS 3 Zrotation Yrotation Xrotation
		JOINT joint_15
		{
			OFFSET 2.288818 -12.306763 -494.206055
			CHANNELS 3 Zrotation Yrotation Xrotation
			JOINT joint_16
			{
				OFFSET -54.691650 0.383423 -424.447006
				CHANNELS 3 Zrotation Yrotation Xrotation
				JOINT joint_17
				{
					OFFSET 202.154297 -21.791382 -80.181999
					CHANNELS 3 Zrotation Yrotation Xrotation
					End Site
					{
						OFFSET 0.000000 0.000000 0.000000
					}
				}
			}
		}
	}
	JOINT joint_18
	{
		OFFSET 10.704102 91.957275 -113.713013
		CHANNELS 3 Zrotation Yrotation Xrotation
		JOINT joint_19
		{
			OFFSET 0.427490 1.374878 -494.359924
			CHANNELS 3 Zrotation Yrotation Xrotation
			JOINT joint_20
			{
				OFFSET -53.071777 2.769531 -424.643028
				CHANNELS 3 Zrotation Yrotation Xrotation
				JOINT joint_21
				{
					OFFSET 200.264648 -28.253052 -82.862999
					CHANNELS 3 Zrotation Yrotation Xrotation
					End Site
					{
						OFFSET 0.000000 0.000000 0.000000
					}
				}
			}
		}
	}
}
MOTION
Frames: 18
Frame Time: 0.016667
-2930.140381 1238.070557 1144.005005 6.251034 0.057106 -0.868839 1.286589 -2.096251 -0.885185 1.360297 0.154911 0.383231 1.334310 -0.464543 -0.196735 -0.345381 -1.633544 0.458012 0.000000 0.000000 0.000000 1.992861 0.424706 1.808944 -1.117567 1.382439 -0.865020 -1.666849 7.485406 -5.311090 0.000000 0.000000 0.000000 -0.632263 0.198629 0.427877 -0.510701 0.901283 -3.058274 -0.228441 0.100976 -0.890268 0.000000 0.000000 0.000000 -2.547603 4.306256 2.582874 -2.244969 -8.003199 -2.402700 -2.438836 2.098739 -0.735571 0.000000 0.000000 0.000000 -3.196327 -0.308120 4.872174 -3.193171 -3.366692 -0.712912 -3.134049 3.077968 -0.856806 0.000000 0.000000 0.000000 
-2920.909424 1239.551147 1143.823975 7.964675 0.499312 -0.553637 1.412707 -2.697232 -1.063709 1.517086 0.261525 0.426723 1.480702 -0.665096 -0.214840 -0.290667 -1.897138 0.118265 0.000000 0.000000 0.000000 2.356257 1.258385 1.805727 -0.915493 2.425717 -1.987750 -1.102150 5.333050 -2.827662 0.000000 0.000000 0.000000 -0.319562 0.460208 0.650377 -0.728816 1.153514 -3.079929 -0.813926 -0.529963 -2.325853 0.000000 0.000000 0.000000 -3.122048 4.467643 2.362870 -2.809718 -7.958563 -2.541811 -2.986951 1.962471 -0.966427 0.000000 0.000000 0.000000 -3.816535 -0.196597 4.619328 -3.808489 -4.029166 -0.936782 -3.739341 3.268795 -1.079105 0.000000 0.000000 0.000000 
-2910.751709 1241.513184 1143.579956 9.661072 0.953965 -0.207052 1.444723 -3.469431 -1.155237 1.589079 0.401337 0.418362 1.539920 -0.917734 -0.211621 -0.152176 -1.804890 -0.346814 0.000000 0.000000 0.000000 2.737152 2.352633 1.786064 -0.612756 3.751193 -3.363608 -0.317495 2.141955 0.237243 0.000000 0.000000 0.000000 0.171098 0.923801 0.913853 -0.974710 1.556098 -2.896166 -1.523356 -1.229139 -3.988794 0.000000 0.000000 0.000000 -3.709065 4.433905 2.026455 -3.402950 -7.459855 -2.531606 -3.548539 1.757490 -1.210298 0.000000 0.000000 0.000000 -4.450594 -0.032152 4.342230 -4.440042 -4.723482 -1.165149 -4.356957 3.458082 -1.306533 0.000000 0.000000 0.000000 
-2901.371094 1243.996338 1143.557007 11.177396 1.330133 0.030413 1.481339 -3.913209 -1.020660 1.645133 0.484731 0.343991 1.588669 -1.063702 -0.179597 -0.032442 -1.639262 -0.702872 0.000000 0.000000 0.000000 2.898704 3.231122 1.748804 -0.496280 4.887505 -4.992406 0.315304 -0.992013 3.240931 0.000000 0.000000 0.000000 0.760035 1.241590 1.131859 -1.241184 1.802463 -2.734747 -2.148215 -1.797851 -5.356281 0.000000 0.000000 0.000000 -4.238459 4.045747 1.700534 -3.969929 -6.193690 -2.377850 -4.075398 1.492781 -1.447586 0.000000 0.000000 0.000000 -4.999883 0.020835 4.142093 -4.985633 -5.046011 -1.348714 -4.887364 3.577641 -1.508174 0.000000 0.000000 0.000000 
-2893.527588 1247.345215 1143.979980 12.484485 1.583015 0.107287 1.540425 -3.789042 -0.543529 1.687442 0.473841 0.200765 1.632929 -1.038725 -0.080226 0.030902 -1.482682 -0.844345 0.000000 0.000000 0.000000 2.602272 3.673372 1.503815 -0.717891 5.607387 -7.153141 0.701598 -3.847608 6.614900 0.000000 0.000000 0.000000 1.550506 1.256507 1.162186 -1.502239 1.736367 -2.778825 -2.565807 -2.160047 -6.173186 0.000000 0.000000 0.000000 -4.719387 3.193915 1.358265 -4.531906 -3.938314 -1.997015 -4.576654 1.342462 -1.663172 0.000000 0.000000 0.000000 -5.423996 -0.111202 3.978182 -5.403910 -4.797746 -1.403659 -5.286265 3.622991 -1.667089 0.000000 0.000000 0.000000 
-2886.461914 1251.214111 1144.624023 13.599777 1.764697 0.115195 1.606837 -3.341387 0.105249 1.724857 0.410669 0.032714 1.677641 -0.934226 0.061850 0.061643 -1.290055 -0.839654 0.000000 0.000000 0.000000 2.059583 3.842359 1.181200 -1.310259 6.107056 -9.657584 0.806636 -6.443119 10.271995 0.000000 0.000000 0.000000 2.444776 1.151901 1.095051 -1.743471 1.545990 -2.887021 -2.878458 -2.459831 -6.682694 0.000000 0.000000 0.000000 -5.130828 1.993401 0.928223 -5.056682 -0.939874 -1.455192 -5.015596 1.282452 -1.843441 0.000000 0.000000 0.000000 -5.756143 -0.347177 3.798306 -5.731526 -4.184222 -1.375008 -5.595960 3.599794 -1.799383 0.000000 0.000000 0.000000 
-2879.592773 1254.599976 1145.088989 14.420681 1.951863 0.125528 1.734634 -2.820475 0.637011 1.829357 0.336905 -0.088864 1.790597 -0.809399 0.159416 0.057901 -1.155356 -0.741797 0.000000 0.000000 0.000000 1.729964 3.928698 0.989676 -1.978573 6.499714 -11.566694 0.688666 -7.890938 12.954507 0.000000 0.000000 0.000000 3.059510 1.084117 1.165365 -1.952184 1.437632 -2.818137 -3.194475 -2.855991 -7.096760 0.000000 0.000000 0.000000 -5.361698 0.580937 0.470264 -5.412699 2.453646 -0.967181 -5.276502 0.984380 -1.976004 0.000000 0.000000 0.000000 -6.008230 -0.645312 3.677766 -5.981289 -3.399841 -1.407941 -5.844937 3.430541 -1.926686 0.000000 0.000000 0.000000 
-2872.748047 1257.114258 1145.255005 14.870184 2.168533 0.144235 1.981911 -2.245914 0.927278 2.058035 0.258642 -0.113971 2.027739 -0.659304 0.162363 0.012554 -1.117350 -0.544723 0.000000 0.000000 0.000000 1.852128 3.997446 0.926591 -2.410153 6.761521 -12.340709 0.487001 -7.292774 14.095039 0.000000 0.000000 0.000000 3.187870 1.095027 1.490145 -2.159629 1.480438 -2.439285 -3.604486 -3.553373 -7.489348 0.000000 0.000000 0.000000 -5.426346 -1.141124 0.012227 -5.613895 6.601249 -0.653122 -5.370117 0.224265 -2.087117 0.000000 0.000000 0.000000 -6.181665 -0.991211 3.676786 -6.152119 -2.507413 -1.576374 -6.039291 3.084487 -2.055094 0.000000 0.000000 0.000000 
-2866.098633 1259.145264 1145.241943 15.030640 2.377490 0.218261 2.291155 -1.542264 0.971520 2.346705 0.145046 -0.020740 2.325898 -0.479439 0.113935 -0.061118 -1.152296 -0.282282 0.000000 0.000000 0.000000 2.196066 4.024102 0.891093 -2.659294 6.889101 -12.401206 0.256149 -5.502017 14.317536 0.000000 0.000000 0.000000 3.055339 1.133391 1.921752 -2.347297 1.589479 -1.865924 -4.008496 -4.366205 -7.738743 0.000000 0.000000 0.000000 -5.340522 -3.065393 -0.528225 -5.643950 11.118390 -0.388931 -5.256369 -0.565909 -2.114892 0.000000 0.000000 0.000000 -6.283772 -1.395816 3.661620 -6.249398 -1.447530 -1.798423 -6.173672 2.632934 -2.172116 0.000000 0.000000 0.000000 
-2859.579590 1260.857544 1145.011963 15.023095 2.594387 0.381001 2.548143 -0.885704 0.849998 2.580748 0.026549 0.105917 2.567764 -0.331411 0.067166 -0.131043 -1.213970 -0.049795 0.000000 0.000000 0.000000 2.547150 4.183587 0.858923 -2.708063 7.068516 -12.077775 0.145584 -4.457705 13.903106 0.000000 0.000000 0.000000 2.914304 1.207706 2.333321 -2.424160 1.734187 -1.248015 -4.214964 -4.855656 -7.754311 0.000000 0.000000 0.000000 -4.986608 -4.807755 -1.140327 -5.340847 14.654038 0.053562 -4.755284 -1.179018 -1.975475 0.000000 0.000000 0.000000 -6.332292 -1.886980 3.551978 -6.290738 -0.214170 -2.019685 -6.254683 2.101825 -2.277335 0.000000 0.000000 0.000000 
-2853.164062 1262.121338 1144.491943 14.790323 2.858142 0.611830 2.722880 -0.405644 0.687008 2.736062 -0.044342 0.147899 2.727755 -0.242625 0.050436 -0.187768 -1.290291 0.126137 0.000000 0.000000 0.000000 2.897179 4.662298 0.841603 -2.323326 7.419694 -11.165540 0.369115 -5.243164 12.332090 0.000000 0.000000 0.000000 2.850672 1.351856 2.724011 -2.347447 1.936610 -0.647517 -4.151114 -4.883363 -7.509906 0.000000 0.000000 0.000000 -4.062550 -6.365922 -1.826823 -4.403375 16.783491 0.912819 -3.514802 -2.015704 -1.584094 0.000000 0.000000 0.000000 -6.294590 -2.421074 3.406941 -6.245533 1.045936 -2.280429 -6.254555 1.491024 -2.359943 0.000000 0.000000 0.000000 
-2846.878662 1263.066406 1143.755005 14.359799 3.165861 0.858083 2.848858 -0.043412 0.475108 2.847454 -0.083590 0.152540 2.842007 -0.185497 0.044036 -0.236710 -1.376004 0.267091 0.000000 0.000000 0.000000 3.260236 5.243946 0.874628 -1.752867 7.798472 -9.898659 0.698827 -6.649198 10.004572 0.000000 0.000000 0.000000 2.768465 1.550165 3.112151 -2.151490 2.185818 -0.043333 -3.873537 -4.579543 -7.030350 0.000000 0.000000 0.000000 -2.869149 -7.807996 -2.526393 -3.153107 17.969408 1.980074 -1.908476 -2.996064 -1.071952 0.000000 0.000000 0.000000 -6.193627 -3.066046 3.263514 -6.134708 2.478162 -2.568358 -6.193898 0.788018 -2.430025 0.000000 0.000000 0.000000 
-2840.738525 1264.240234 1142.985962 13.947081 3.499232 1.023053 2.907877 0.230827 0.266017 2.896587 -0.121603 0.184525 2.893708 -0.136191 0.042935 -0.273298 -1.431030 0.375736 0.000000 0.000000 0.000000 3.500550 5.619113 0.853374 -1.450419 8.047005 -9.116332 0.860193 -7.456317 8.547639 0.000000 0.000000 0.000000 2.653691 1.727375 3.434805 -1.843662 2.400202 0.497994 -3.378943 -3.906833 -6.306537 0.000000 0.000000 0.000000 -2.118672 -8.936103 -3.006259 -2.346632 18.420435 2.797870 -0.874284 -3.502206 -0.728594 0.000000 0.000000 0.000000 -6.116412 -4.040213 3.116844 -6.040065 4.532138 -2.770678 -6.141135 0.001336 -2.513840 0.000000 0.000000 0.000000 
-2834.888184 1265.976685 1142.298950 13.573716 3.896797 0.947941 2.874928 0.370087 0.265466 2.859394 -0.158766 0.167868 2.859779 -0.088614 0.050971 -0.295081 -1.416917 0.462123 0.000000 0.000000 0.000000 3.497838 5.643619 0.658492 -1.541554 8.072820 -9.284548 0.820988 -7.111982 8.941094 0.000000 0.000000 0.000000 2.501322 1.876798 3.712675 -1.402524 2.573582 0.960234 -2.630917 -2.747360 -5.320899 0.000000 0.000000 0.000000 -2.176284 -9.762984 -2.970673 -2.398476 18.145384 3.133046 -0.963860 -3.119126 -0.720848 0.000000 0.000000 0.000000 -6.014718 -5.355705 3.050568 -5.919526 7.202965 -2.783526 -6.043851 -0.781290 -2.576898 0.000000 0.000000 0.000000 
-2829.183838 1267.943970 1141.579956 13.181836 4.318596 0.729090 2.787159 0.412701 0.390447 2.771928 -0.189130 0.114374 2.776278 -0.044415 0.068451 -0.305029 -1.368811 0.520045 0.000000 0.000000 0.000000 3.381547 5.485860 0.382727 -1.823265 7.980701 -9.921638 0.679355 -6.239337 10.206382 0.000000 0.000000 0.000000 2.307664 2.010272 3.924685 -0.867863 2.707469 1.367847 -1.684141 -1.203895 -4.064266 0.000000 0.000000 0.000000 -2.626536 -10.285823 -2.596863 -2.897250 17.238533 3.197091 -1.653682 -2.323103 -0.900063 0.000000 0.000000 0.000000 -5.911176 -6.978525 3.059929 -5.807186 10.447872 -2.719477 -5.952778 -1.495654 -2.629247 0.000000 0.000000 0.000000 
-2823.197021 1269.689941 1140.673950 12.882489 4.646159 0.598022 2.713702 0.467271 0.393142 2.703679 -0.201513 0.144972 2.711544 0.003999 0.088685 -0.311496 -1.357119 0.547110 0.000000 0.000000 0.000000 3.405618 5.411425 0.129842 -2.026841 7.949896 -10.303795 0.567333 -5.615928 11.052793 0.000000 0.000000 0.000000 2.058087 2.059836 3.971410 -0.318584 2.730466 1.682746 -0.652069 0.411938 -2.495493 0.000000 0.000000 0.000000 -2.945573 -10.325603 -2.291460 -3.309855 16.156911 3.187908 -2.235194 -1.875067 -1.076262 0.000000 0.000000 0.000000 -5.989836 -9.088283 3.088318 -5.900165 14.685532 -2.839581 -6.120785 -2.030259 -2.752410 0.000000 0.000000 0.000000 
-2816.503906 1270.895630 1139.547974 12.772611 4.798777 0.569308 2.694113 0.593400 0.382470 2.697773 -0.202764 0.190878 2.709649 0.062751 0.101385 -0.320272 -1.414309 0.548626 0.000000 0.000000 0.000000 3.706259 5.646089 -0.087943 -1.961746 8.132986 -9.965398 0.596718 -5.745455 10.774370 0.000000 0.000000 0.000000 1.648498 1.958761 3.812425 0.265597 2.602235 1.812219 0.539252 2.129385 -0.353300 0.000000 0.000000 0.000000 -2.925523 -9.622772 -2.075439 -3.430671 14.936202 3.049916 -2.488211 -2.060362 -1.194020 0.000000 0.000000 0.000000 -6.310138 -11.811268 3.228867 -6.315266 20.315009 -3.322450 -6.776768 -2.066033 -2.980347 0.000000 0.000000 0.000000 
-2809.529297 1271.880981 1138.234985 12.658243 4.797735 0.462366 2.713320 0.852031 0.585644 2.746978 -0.247004 0.148533 2.768609 0.132312 0.114389 -0.328062 -1.510702 0.527239 0.000000 0.000000 0.000000 4.144411 5.978819 -0.302031 -1.798770 8.379757 -9.336345 0.676981 -6.158564 10.087911 0.000000 0.000000 0.000000 1.175607 1.766977 3.476230 0.831370 2.353353 1.868842 1.786273 3.873808 2.206087 0.000000 0.000000 0.000000 -2.750630 -8.367934 -1.726143 -3.411043 13.491686 2.747333 -2.619539 -2.461492 -1.286844 0.000000 0.000000 0.000000 -6.665753 -14.850356 3.594823 -6.927877 26.631561 -4.098048 -7.926866 -1.206485 -3.244362 0.000000 0.000000 0.000000 
